<svg id="a97df44d-5111-461e-97db-86befb474512" data-name="Слой 2" xmlns="http://www.w3.org/2000/svg" viewBox="0 0 1598.69 860.37"><defs><style>.b6113869-a386-46cd-ad3e-5d7417a4ca82{fill:#387375;}.e64e56e3-2ea1-42fa-831d-e16dda7ed89c,.e8748ac1-bacc-45f1-bb82-3a576bff9494,.fae12ffc-bf66-42e8-a937-18a0e107c338{fill:none;stroke-miterlimit:10;}.e8748ac1-bacc-45f1-bb82-3a576bff9494,.fae12ffc-bf66-42e8-a937-18a0e107c338{stroke:#0c2633;}.e64e56e3-2ea1-42fa-831d-e16dda7ed89c,.e8748ac1-bacc-45f1-bb82-3a576bff9494{stroke-width:57px;}.aa1de6eb-2e8e-491f-9e0e-e443d969730f{fill:#0c2633;}.e64e56e3-2ea1-42fa-831d-e16dda7ed89c{stroke:#223c4b;}.b9de6140-c041-4819-92eb-8cf51a7dd3f7{fill:#223c4b;}.fae12ffc-bf66-42e8-a937-18a0e107c338{stroke-width:50px;}.ea4ae7e1-1978-4589-94ba-12f997e3b593{fill:#e0e8eb;}.e981b589-9165-4a1b-80fa-3acbba8db290{fill:#a93f55;}.f1032ce6-f306-4ace-9d1e-68e3f66610ba{fill:#051923;}.bb967803-2923-4461-a91b-1f115afe6d91{opacity:0.2;}.beed247e-334a-4d1a-952a-bd7f6fe38bda{fill:#863346;}</style></defs><polygon class="b6113869-a386-46cd-ad3e-5d7417a4ca82" points="36.78 223.52 36.78 598.02 353.57 785.27 670.36 598.02 670.36 223.52 353.57 36.27 36.78 223.52"/><path class="e8748ac1-bacc-45f1-bb82-3a576bff9494" d="M212.89,690.73l106,60.61a58.08,58.08,0,0,0,57.73,0L632.5,605a58.48,58.48,0,0,0,29.4-50.78V262.66a58.48,58.48,0,0,0-29.4-50.77L376.58,65.5a58.13,58.13,0,0,0-57.73,0L62.93,211.89a58.48,58.48,0,0,0-29.4,50.77V554.18A58.48,58.48,0,0,0,62.93,605l70.74,40.46"/><path class="aa1de6eb-2e8e-491f-9e0e-e443d969730f" d="M118.11,675.84,85.37,656.9c-5.06-2.92-6.7-9.63-3.66-15L101.51,607a10.76,10.76,0,0,1,14.66-4.39l32.74,18.94c5.06,2.92,6.69,9.63,3.66,15l-19.81,34.91A10.76,10.76,0,0,1,118.11,675.84Z"/><rect class="aa1de6eb-2e8e-491f-9e0e-e443d969730f" x="199.25" y="249.07" width="57" height="443.24" rx="7.7"/><path class="e64e56e3-2ea1-42fa-831d-e16dda7ed89c" d="M210.73,696.15,318.4,758.22a58.68,58.68,0,0,0,58.65,0l260-149.9a60,60,0,0,0,29.88-52V257.82a60,60,0,0,0-29.88-52l-260-149.9a58.63,58.63,0,0,0-58.65,0l-260,149.9a60,60,0,0,0-29.88,52V556.33a60,60,0,0,0,29.88,52l71.87,41.43"/><path class="b9de6140-c041-4819-92eb-8cf51a7dd3f7" d="M116.83,675.57,85.31,657.34a10.33,10.33,0,0,1-3.74-14.05l18.28-32.24a10.15,10.15,0,0,1,13.9-3.86l31.52,18.23A10.35,10.35,0,0,1,149,639.47l-18.29,32.24A10.13,10.13,0,0,1,116.83,675.57Z"/><path class="b9de6140-c041-4819-92eb-8cf51a7dd3f7" d="M195.25,685.89V259.49a8.62,8.62,0,0,1,8.81-8.42H243.5a8.62,8.62,0,0,1,8.81,8.42V711.57A8.61,8.61,0,0,1,243.5,720H204.06a8.61,8.61,0,0,1-8.81-8.41V685.89"/><path class="aa1de6eb-2e8e-491f-9e0e-e443d969730f" d="M114.59,674.28l-27.76-16a9.11,9.11,0,0,1-3.27-12.4l16.18-28.54A9,9,0,0,1,112,613.86l27.75,16A9.13,9.13,0,0,1,143,642.32l-16.18,28.53A8.94,8.94,0,0,1,114.59,674.28Z"/><path class="fae12ffc-bf66-42e8-a937-18a0e107c338" d="M209.64,699l109,62.75a59.4,59.4,0,0,0,59.37,0L641.25,610.18a60.61,60.61,0,0,0,30.25-52.56V255.82a60.64,60.64,0,0,0-30.25-52.57L378,51.71a59.4,59.4,0,0,0-59.37,0L55.39,203.25a60.63,60.63,0,0,0-30.24,52.57v301.8a60.6,60.6,0,0,0,30.24,52.56l72.76,41.89"/><path class="aa1de6eb-2e8e-491f-9e0e-e443d969730f" d="M194.19,688.85V260.73a8.42,8.42,0,0,1,8.37-8.45h37.49a8.41,8.41,0,0,1,8.36,8.45v453.9a8.4,8.4,0,0,1-8.36,8.45H202.56a8.41,8.41,0,0,1-8.37-8.45V688.85"/><path class="ea4ae7e1-1978-4589-94ba-12f997e3b593" d="M188.25,804.07a8.75,8.75,0,0,0,3.67,1,25.28,25.28,0,0,0,2.76-.17l1.5-.18.81-.13a22.2,22.2,0,0,0,7.45-2.6c7-4,11.81-15.88,11.81-15.88,3.15-8,7.66-19.54,3-31-6.71-16.53-27.86-20.25-43-23a85.84,85.84,0,0,0-45.12,3.62c-5.89,2.23-15.51,6-23.88,15.38a54.88,54.88,0,0,0-7,10c-9.72,18.61-1.08,56.44,24,77,12.62,10.35,25.26,12.79,50,17.25,17.66,3.18,49.72,7.14,78,3.75,75-9,111-104,111-104s9-24,10-27c.6-1.78,1.19-5.32,1.57-5.19a.21.21,0,0,1,.1.12c.21.48.33,2.45.33,7.07,0,13,3,16,10,19s22,1,24,0,7-6,3-8-12-8-13-14-4-21-2-24,11,17,13,19,5,4,12,3,12-9,11-12-3-23-17-27c-3.15-.9-5.67-1.69-5.61-2.4.15-1.64,14.59,0,28.61-2.6,10.76-2,16.95-5.71,36-17,10-5.9,22.8-13.49,44-26l-107-3,2-7s-1,0,1-3a10.78,10.78,0,0,0,2-7c0-2,1-5,1-7s2-7,1-8,2-3,2-9,0-3,1-6,140-406,140-406,20-55,21-58,5-57,55-57,69,86.29,37,117.65c-4.77,4.67-9.52,9.43-13,12.17-9.47,7.34-32.59,21.48-42,23.18-2.74.5-4.12,1.5-4.56,2.71-1,2.8,4.46,7.69,9.56,9.29a32,32,0,0,0,5,1,45.71,45.71,0,0,0,6,.36c10.48-.11,24-5.36,24-5.36,21-9,33-13,55-36s24-58,25-63c7.85-39.24-14.16-94.39-62-119,0,0-55-28.31-123,10-9.74,5.49-25.61,19-31,25C522,47.6,516.13,57.25,514,62.24c-2.53,6.09-4.39,10.64-4.79,11.83-3.93,11.62-76.5,217.31-177,502a15.52,15.52,0,0,0-7,1,2.93,2.93,0,0,0-1.08.68c-1.36,1.52-.08,4.48-.92,5.32-1,1-1,6-2,7s-2,7-2,9-2,1-2,3,0,10-1,10-3,4-2,8c.37,1.48.2,2.27-.22,2.69-.76.75-2.26.43-2.78.31-10.88-2.42-47.87-7.87-57-9-15.84-2-19.71.2-21,1-1.76,1.1-4.65,3.36-13,26,0,0-8.19,22.22-5.76,23.12h0c.54-.06,1.12-.11,1.74-.13.35,0,.68,0,1,0,2.32-.81,70.49,1.49,80,11,1,1-1,9,0,11a6.5,6.5,0,0,0,2.21,2.08,12.71,12.71,0,0,1,1.06.88,1.3,1.3,0,0,1,.25.28.33.33,0,0,1-.09.31c-.29.45-10.45,49.64-28.43,82.45-9.05,16.52-25,45.66-53,51-9.6,1.84-29.6,2.27-39-8.79-2.19-2.58-3-5.45-4-8.21-5.06-13.49-9.82-22.36-6.34-30,.37-.8,2.53-5.54,6.34-6,4-.47,7.32,4,8,5,4.15,5.92,3.34,14.44,3,18-.17,1.86-1,9.06,1,11a4.77,4.77,0,0,0,1.67,1l2.91-.11"/><path class="e981b589-9165-4a1b-80fa-3acbba8db290" d="M177.25,809.07c-.79-1.32-18.29-31-11-42a15.85,15.85,0,0,1,4-4c5.34-3.48,12.91-3,18,0,8.16,4.75,9.32,14.72,10,21,.36,3.32,1.59,14.53-5,20a10.89,10.89,0,0,1-1.33,1s-4.67,2-4.67-4v-5s1-8,0-13-4-13-11-13-7.49,12.83-6.74,17.42S177.25,809.07,177.25,809.07Z"/><path class="f1032ce6-f306-4ace-9d1e-68e3f66610ba" d="M689.25,173.07c2.71,0,4.7-11.31,5-13a68,68,0,0,0,1-15c-.73-14.49-1.53-30.16-11-47a64.55,64.55,0,0,0-12-16,63.13,63.13,0,0,0-23-14,69.31,69.31,0,0,1,21,16c8,9,11.53,17.86,14,24a67.68,67.68,0,0,1,4,13c.28,1.5.72,4.18,1,6l0,.27c.53,3.4.9,6.28,1,6.73.28,2.25.25,5.46,0,13-.41,12.76-.69,15.56-2,17a7.12,7.12,0,0,0-2,4,4.62,4.62,0,0,0,0,1C686.46,171,688.09,173.08,689.25,173.07Z"/><path class="e981b589-9165-4a1b-80fa-3acbba8db290" d="M689.25,174.07c1.4-7.61,1.43-9.88,1-10s-.77.8-2,1c-.7.12-.89.11-1,0a1,1,0,0,1,0-1c-.23.75-.56,1.79-1,3a47.31,47.31,0,0,1-2,5,35.85,35.85,0,0,1-3,5,40.38,40.38,0,0,1-6,7c-7,6.19-12.75,11.26-17,15a58,58,0,0,1-6.11,4.83c-1.29.89-3.17,2-6.89,4.17-3.38,2-5.12,3-7,4-2.34,1.25-4.09,2.09-6,3-5.36,2.57-8,3.86-9,4a41.14,41.14,0,0,0-6,2l-1,1-1,1a5.89,5.89,0,0,0,1,2c3,3.87,10.43,2.64,14,2,7.49-1.33,13.58-4.43,22-10a197.63,197.63,0,0,0,21-16,65.07,65.07,0,0,0,9-10,63.79,63.79,0,0,0,5-8,64.61,64.61,0,0,0,3-7,66.77,66.77,0,0,0,2.1-6.89c2-7.89,3.67-19.81,2.33-25.67-.42-1.83-2.07-3.08-2.74-4.83-.13-.36-1-3-1.6-2.65-.18.1-.08.62-.09.8,0,.36,0,.72,0,1.08,0,.72-.08,1.43-.15,2.15-.12,1.26-.3,2.53-.44,3.79s-.29,2.75-.38,4.13c-.27,4-.26,8.09-1,12.05-.35,1.78-.82,3.51-.82,3.51l-.16.53c-.41,1.39-.77,2.36-1,3-.13.38-.3.86-.49,1.43s-.4,1.22-.51,1.57"/><path class="aa1de6eb-2e8e-491f-9e0e-e443d969730f" d="M164.67,777.22c3.68,1.89,4.86,2.7,4.78,4.33s7.46,26.94,7.8,27.52h0s-1.63-2.36-1.72-2.48c-1.95-2.83-4.54-9.17-6.16-13.23-2.2-5.55-3.69-9.54-4.1-12.22l-.53-3.38h0"/><path class="e981b589-9165-4a1b-80fa-3acbba8db290" d="M421.25,595.07c.76-5.43,1.07-6.14,1-6.74,0,0,0-.13,0-.26-1-6.26-31-10-31-10a228.74,228.74,0,0,0-24-2c-9.36-.24-25.08,0-32,0h-3c-3.68-.11-4.55-.63-6,0-.34.15-2.66,1.16-3,3-.15.86.18,1.42,0,3a9.75,9.75,0,0,1-.39,1.66c-.45,1.74-1,3.38-2.61,8.34-.94,3-2,6.18-3,9.82a107.07,107.07,0,0,0-3,11.18c-.84,4.67-1.26,7-1,10,.28,3.17,1.13,6,1,11.53,0,1.45,0,1.22,0,1.47,0,2,13,9,19,13s1,6-1,7c-1.68.84-23.8,10.85-30.85,14l-2.15,1-1,1-1,2c0,.48,0,1.17,0,2-.05,7.3-.64,8.31,0,9,1.76,1.9,8.85-2.53,18-7,6.82-3.32,4-1.39,19-8s14.08-6.9,26-12c10.23-4.37,15.33-6.59,22-9,5.25-1.89,3.93-1.19,12-4,12.49-4.34,16.31-6.24,18-10,.67-1.47.52-2.16,2-6,1.58-4.07,2.22-4.52,3-7,1-3.2.24-3.44,1-9,.62-4.56,1.13-4.35,2-10C420.72,600,420.61,599.73,421.25,595.07Z"/><path class="e981b589-9165-4a1b-80fa-3acbba8db290" d="M387.25,678.07c3,4,10,8,10,24l-.23,2-18.77-6-10.11-21.54,1.11-1.46,18,3"/><path class="e981b589-9165-4a1b-80fa-3acbba8db290" d="M377,695.52l-7.86-19.45-42.84-2.52a1.25,1.25,0,0,0-1.06-.48,1.19,1.19,0,0,0-1,1c-.23,0-.58,0-1,0a9.46,9.46,0,0,0-5,2c-1.56,1.16-6.74,3.2-21,7a4.33,4.33,0,0,0,0,4,4.23,4.23,0,0,0,3,2c5,1,9.39,1.61,13,2,1.8.2,2.3.22,13,1,8.61.63,10.56.79,13,1,4.23.38,7.7.75,10,1Z"/><path class="e981b589-9165-4a1b-80fa-3acbba8db290" d="M387.25,678.07l-24-19-1.92-1.91L349,662.34l19.22,13.1.23.63"/><path class="e981b589-9165-4a1b-80fa-3acbba8db290" d="M396.25,706.07l.91-3.24s.31-.23.2,0,.06,0,.32.08a3.63,3.63,0,0,1,2,1.34c2.17,2.75,6.6,11.82,6.6,11.82a27.32,27.32,0,0,0,4,6l1,1h0a5.92,5.92,0,0,0,1.39.89,15,15,0,0,0,2.61,1.11,11.13,11.13,0,0,0,3.5.27,26.59,26.59,0,0,0,4.5-.27,13,13,0,0,0,6.61-4L430,721a17,17,0,0,0,3.07-5.21c1.49-4.22-2.06-17.25-8.8-24.7a18.38,18.38,0,0,0-5-4l-1.45-.64c-2.25-1-4.08-1.78-5.55-2.36-1.8-.71-3.22-1.15-6-2-4.27-1.3-4.25-1.14-7-2-3.89-1.21-6.77-2.46-12-3.74-1.81-.45-2.81-.61-3-.26-.33.63,2.15,2.3,4,4,7.32,6.74,9.2,18,8.79,18.19h0C396.25,698.07,396.25,706.07,396.25,706.07Z"/><polygon class="bb967803-2923-4461-a91b-1f115afe6d91" points="335.67 651.11 349.79 662.79 347.27 664.11 335.63 654.04 335.67 651.11"/><path class="bb967803-2923-4461-a91b-1f115afe6d91" d="M348.94,646.46a59.79,59.79,0,0,0,5.61,6.48,19.42,19.42,0,0,0,7.17,4.56l2.06-.94-2.72-2.19a64.26,64.26,0,0,1-10-8.22Z"/><path class="bb967803-2923-4461-a91b-1f115afe6d91" d="M324.42,675.73a23.22,23.22,0,0,1-4,2.34c-5.52,2.7-11.3,4.86-16.88,7.43a17.13,17.13,0,0,1-5,1.75,1.39,1.39,0,0,1-1.2-.28,1.29,1.29,0,0,1-.26-.57,5.65,5.65,0,0,1-.11-2.28,1.7,1.7,0,0,1,.27-.73,1.67,1.67,0,0,1,.67-.44,23.16,23.16,0,0,1,3-1,105.22,105.22,0,0,0,17.7-6.52c2.29-1.09,4.65-2.28,7.18-2.26.24,0,.57.13.55.41s-.36.6-.51.79A8.21,8.21,0,0,1,324.42,675.73Z"/><path class="e981b589-9165-4a1b-80fa-3acbba8db290" d="M368.49,676.07c8.76,19,8.52,19.21,8.52,19.21l.24,1.79,19.76,5.6"/><path class="e981b589-9165-4a1b-80fa-3acbba8db290" d="M377,695.52c-.25,1.78-.51,3.71-.76,5.55-.79,5.84-.9,6.75-1,8s0,.62,0,8c0,3.54,0,9.17,0,11,0,.17,0,.6,0,1.19,0,1.17-.07,1.69,0,3.81.12,4,.2,6.08,1,8a13.69,13.69,0,0,0,3.47,4.79,16.53,16.53,0,0,0,6.35,3.55,25,25,0,0,0,6.2,1.12c3.75.36,6.88.09,13-.46,3.3-.29,4.07-.45,5-1,2.34-1.36,4.66-4.47,4-7-.83-3.17-5.54-2.27-10-7a19.85,19.85,0,0,1-4-7c-.85-2.18-.67-2.55-2-10-1.23-6.93-1.87-9.34-1-13a18.15,18.15,0,0,1,1-3"/><path class="bb967803-2923-4461-a91b-1f115afe6d91" d="M368.4,675.39a26.41,26.41,0,0,1,6,7.34,16.5,16.5,0,0,1,1.72,4.4,26.77,26.77,0,0,1,.79,8.36l-2.1-.09a30.36,30.36,0,0,0-.17-3.44l-.17-1.6c-.08-.74-.16-1.48-.3-2.21-.61-3.16-2.3-6-4-8.73-.76-1.24-1.52-2.46-2.39-3.63Z"/><path class="bb967803-2923-4461-a91b-1f115afe6d91" d="M389.3,681.4c.63.93,1.26,1.85,1.86,2.8.41.65.8,1.31,1.18,2s.74,1.35,1.08,2,.68,1.38,1,2.08.61,1.41.89,2.13.54,1.44.78,2.16.47,1.47.68,2.21.39,1.48.55,2.23.31,1.5.44,2.26c.05.29.09.58.13.87s0,.29.06.43a.64.64,0,0,1,0,.41,3.75,3.75,0,0,0-.19.41,5.11,5.11,0,0,1-.22.66.59.59,0,0,0-.06.14c0,.12,0,.26-.06.37s-.08.1-.07.15l-.4-.83-.28-.55-.09-.18a1.43,1.43,0,0,1-.06-.36c-.05-.53-.06-1.07-.16-1.6a58.87,58.87,0,0,0-2.43-8.17,30.61,30.61,0,0,0-4.22-8.68l-2.22-3.44-1.12-1.72c-.3-.47-.71-.87-1-1.36-.14-.26-.23-.5-.39-.75a5,5,0,0,1-.6-1.26l1,.15a.09.09,0,0,1,.07,0s0,0,0,.06a3.76,3.76,0,0,0,.35.83,3.39,3.39,0,0,0,.7,1,4.63,4.63,0,0,1,.42.32c.18.18.32.4.48.59C388.1,679.64,388.7,680.52,389.3,681.4Z"/><path class="ea4ae7e1-1978-4589-94ba-12f997e3b593" d="M412.25,591.07c1,1,2,6,1,6-2.71,0-7.91-3.18-19-6-3.28-.83-8.18-1.22-18-2-8.54-.67-13-1-19-1a143.46,143.46,0,0,0-23,2,2.74,2.74,0,0,1-2-1c-.77-1.08-.17-2.57,0-3,1.19-2.93,6.45-3.69,9-4,8.7-1.05,15.28-.52,25,0,5,.27,10,.69,15,1,7.12.45,8.77.51,12,1,7.9,1.21,11.9,3,14,4A38.22,38.22,0,0,1,412.25,591.07Z"/><path class="ea4ae7e1-1978-4589-94ba-12f997e3b593" d="M327.25,603.07a32.64,32.64,0,0,1,7-4,34.54,34.54,0,0,1,7-2,72.05,72.05,0,0,1,15-1c7.23.13,13.26.59,18,1a172.92,172.92,0,0,1,21,3,39.38,39.38,0,0,1,9,3c3.43,1.65,8.47,4.71,8,6s-5.21.62-8,0c-3.73-.82-4.5-1.88-9-3a59.23,59.23,0,0,0-6-1c-1.38-.19-5.42-.72-11-1l-2.81-.11c-12.9-.5-13.19-.79-18.19-.89,0,0-9-.16-20.39.75-1.53.12-3.08.08-4.61.25-2.64.3-4.52.78-5,0A1.2,1.2,0,0,1,327.25,603.07Z"/><path class="ea4ae7e1-1978-4589-94ba-12f997e3b593" d="M324.25,614.07a76.66,76.66,0,0,1,12-3,90.81,90.81,0,0,1,14-1,184.74,184.74,0,0,1,22,1c1.86.2,4.5.47,8,1,6.05.92,10.73,2,15,3,2.21.52,4.91,1.18,8,2,1.58.75,3.3,1.7,3.16,2.33-.19.82-3.39.74-5.16.67-9.4-.32-17.24-1.46-22-2-6.48-.73-11.61-.88-16-1-2.71-.07-7.16-.19-13,0-7,.23-14-.69-21,0-1.13.12-4.16.45-5-1A2.44,2.44,0,0,1,324.25,614.07Z"/><path class="ea4ae7e1-1978-4589-94ba-12f997e3b593" d="M329.25,629.07c3,0,51,3,51,4s-24,13-27,13-3.64,1-5.32,0-21.68-16-21.68-16Z"/><path class="bb967803-2923-4461-a91b-1f115afe6d91" d="M406,619.86l0,0-.06,0-.07,0-.1,0-.11.06-.12.06-.15.08-.15.08-.18.09-.19.1-.2.1-.22.11-.23.12-.25.13-.25.13-.27.14-.29.15-.29.15-.3.16-.32.16-.32.17-.34.17-.34.18-.36.18-.36.19-.37.19-.37.19-.39.2-.39.2-.4.21-.4.21-.4.21-.42.21-.41.21-.42.22-.43.22-.43.22-.42.22-.44.23-.43.22-.43.22-.44.23-.44.22-.43.23-.44.22-.43.23-.43.22-.44.22-.42.23-.43.22-.42.21-.42.22-.42.22-.41.21-.4.21-.4.2-.4.21-.38.2-.39.19-.37.2-.37.19-.35.18-.35.18-.34.18-.34.17-.32.17-.31.16-.3.15-.29.15-.27.14-.27.14-.25.13-.24.13-.23.11-.21.11-.2.1-.18.1-.17.09-.15.08-.14.07-.12.06-.1,0-.09,0-.07,0-.05,0h0s0,0,0,0l-.12,0-.39-.12-.47-.14-.4-.12-.17-.05h-.05l.14-.18.26-.36.3-.39.21-.27a.13.13,0,0,1,.06-.07l.06,0,.1,0,.13-.07.17-.08.2-.09.23-.11.26-.12.29-.14.31-.15.35-.16.37-.18.39-.18.41-.2.44-.2.45-.22.47-.22.49-.23.51-.24.52-.25.53-.25.54-.26.56-.26.56-.27.57-.27.58-.27.58-.28.59-.27.59-.28.59-.28.59-.28.59-.28.58-.28.59-.27.57-.28.57-.27.57-.26.55-.26.54-.26.53-.25.52-.25.51-.24.48-.23.47-.22.46-.21.43-.21.41-.19.39-.19.37-.17.34-.16.31-.15.29-.14.26-.12.22-.11.2-.09.16-.08.13-.06.1,0,.07,0,2.73-.38S406,619.84,406,619.86Z"/><path class="bb967803-2923-4461-a91b-1f115afe6d91" d="M324,615.35a8.64,8.64,0,0,0-.85,4c0,.58.07,1.17.12,1.75l.25,2.64c.05.49.09,1,.17,1.48a12.71,12.71,0,0,0,.94,3.19,2.57,2.57,0,0,0,1.65,1.64l1.73-.58a10.19,10.19,0,0,1-2.54-3.89,14.82,14.82,0,0,1-.55-2.46c-.15-.9-.28-1.81-.4-2.72a11,11,0,0,1-.06-4.08l-.38-1Z"/><path class="bb967803-2923-4461-a91b-1f115afe6d91" d="M324.43,614a1,1,0,0,0-.2.09l0,0a5.92,5.92,0,0,1-.2,1.33l-.24.44c0-.12-.09-.23-.12-.34a1.25,1.25,0,0,1-.07-.26,1.51,1.51,0,0,1,.06-.52c0-.15.08-.3.13-.44a.85.85,0,0,1,.09-.22.58.58,0,0,1,.31-.2,1.63,1.63,0,0,1,.38,0l.08,0C324.81,613.94,324.48,614,324.43,614Z"/><path class="bb967803-2923-4461-a91b-1f115afe6d91" d="M413.08,591.07a.25.25,0,0,1,.12,0,.18.18,0,0,1,.08.09,7,7,0,0,1,.84,2.69,17.2,17.2,0,0,1,.11,3.44l-1.05-.16c.23,0,.38-.27.46-.48a1.69,1.69,0,0,0,.05-.67,13.89,13.89,0,0,0-.4-2.32,7.91,7.91,0,0,0-.66-2c-.06-.11-.32-.4-.25-.52S413,591.07,413.08,591.07Z"/><path class="beed247e-334a-4d1a-952a-bd7f6fe38bda" d="M405,617.43a3,3,0,0,1,.73.24,3.55,3.55,0,0,1,.31.23,1.71,1.71,0,0,1,.74,1,1.06,1.06,0,0,1-.3.91,1.88,1.88,0,0,1-.86.48,8.1,8.1,0,0,1-1,.2c.16-.08.19-.3.32-.42a.73.73,0,0,1,.35-.12l.45-.07a.8.8,0,0,0,.4-.14.58.58,0,0,0,.16-.19.56.56,0,0,0,.08-.33.62.62,0,0,0-.2-.31,5.89,5.89,0,0,0-.55-.44l-.33-.24L405,618a4.63,4.63,0,0,0-.54-.29c-.18-.08-.36-.18-.53-.27a1.85,1.85,0,0,1-.52-.29c.07-.1.64.1.77.13Z"/><path class="bb967803-2923-4461-a91b-1f115afe6d91" d="M333.23,584.8a2.13,2.13,0,0,0-1,.92,4.8,4.8,0,0,0-.24.63c-.07.22-.14.43-.19.65a2.91,2.91,0,0,0,.66,2.35,1.85,1.85,0,0,0,.38.36,2.57,2.57,0,0,0,.81.31l.55.16-1.41.09a1.3,1.3,0,0,1-1-.5,2.94,2.94,0,0,1-.48-1,5.37,5.37,0,0,1-.05-3,2.74,2.74,0,0,1,.59-1.1,2.59,2.59,0,0,1,1-.62,8,8,0,0,1,1.18-.26Z"/><path class="bb967803-2923-4461-a91b-1f115afe6d91" d="M329.28,601.47q-.58.4-1.14.84a6.5,6.5,0,0,0-.74.65.83.83,0,0,0-.17.21.78.78,0,0,0-.07.58,1.52,1.52,0,0,0,.25.53.52.52,0,0,0,.21.23.76.76,0,0,0,.18.08c.12,0,.28.15.45.48l-.83-.17a1.12,1.12,0,0,1-.4-.28,1.23,1.23,0,0,1-.18-.46,5,5,0,0,1-.16-.84,1,1,0,0,1,0-.39,1,1,0,0,1,.13-.23,2.2,2.2,0,0,1,.3-.37,2.61,2.61,0,0,1,.43-.31,10.1,10.1,0,0,0,.95-.59,1.06,1.06,0,0,1,.55-.29l.37.07c.05,0,.19,0,.15.08a1.14,1.14,0,0,1-.16.09Z"/><path class="bb967803-2923-4461-a91b-1f115afe6d91" d="M411.28,607.44s0,0,0-.06a.58.58,0,0,1,.34.09,1.48,1.48,0,0,1,.26.24,3.24,3.24,0,0,1,.47.71.67.67,0,0,1,.07.18,1.48,1.48,0,0,1,0,.21,1.35,1.35,0,0,1-.06.35.82.82,0,0,1-.43.45,2.12,2.12,0,0,1-.62.18.61.61,0,0,1-.3,0s0,0,.05-.07.11-.11.18-.13l.33-.1a1.36,1.36,0,0,0,.39-.17.58.58,0,0,0,.25-.32.87.87,0,0,0-.08-.5,1,1,0,0,0-.11-.23,1.34,1.34,0,0,0-.11-.14c-.07-.09-.11-.19-.18-.29a1.52,1.52,0,0,0-.34-.33l-.19-.16.05,0Z"/><polygon class="b9de6140-c041-4819-92eb-8cf51a7dd3f7" points="485.19 142.49 561.08 186.1 558.72 193.56 478.86 147.51 485.19 142.49"/><polygon class="aa1de6eb-2e8e-491f-9e0e-e443d969730f" points="482.32 149.51 558.58 193.43 556.15 201.05 477.71 156.19 482.32 149.51"/><rect class="aa1de6eb-2e8e-491f-9e0e-e443d969730f" x="507.65" y="87.81" width="50.23" height="106.11" rx="2.34" transform="translate(145.2 532.62) rotate(-60.12)"/><path class="e981b589-9165-4a1b-80fa-3acbba8db290" d="M126.71,671.48a1.11,1.11,0,0,0,.05.6,2.85,2.85,0,0,0,.28.55,1.3,1.3,0,0,0,.1.15,1.56,1.56,0,0,0,.2.16,2.37,2.37,0,0,0,1.21.46h.19a.76.76,0,0,0,.18-.09,3.39,3.39,0,0,0,1.37-1.46L148,640.58a1.6,1.6,0,0,0,.16-1.21,1.63,1.63,0,0,0-.75-1,2.26,2.26,0,0,0-.43-.17,3.85,3.85,0,0,0-1-.2,1.36,1.36,0,0,0-.72.09,1.64,1.64,0,0,0-.69,1c-.34,1-.69,1.92-1,2.88Z"/><path class="e981b589-9165-4a1b-80fa-3acbba8db290" d="M206.88,250.43l37.13-.19a1.37,1.37,0,0,1,.74.22,1.13,1.13,0,0,1,.46.43.68.68,0,0,1-.35.81,2.32,2.32,0,0,1-1,.29c-.33,0-.66.07-1,.07l-36.39,0a3.43,3.43,0,0,1-1.39-.16,1.54,1.54,0,0,1-.59-.32.59.59,0,0,1-.22-.54.8.8,0,0,1,.57-.53,3.19,3.19,0,0,1,.87-.1Z"/></svg>