<svg id="fc2db37f-7cc4-450e-8328-ffdc2ae6e15a" data-name="Слой 2" xmlns="http://www.w3.org/2000/svg" viewBox="0 0 886.11 886.11">
  <defs>
    <style>
      .b527c931-0f71-46d5-aaa0-d86ec92f02da {
        fill: #387375;
      }

      .a10ea82e-7905-4b08-ae04-423b093abe3e, .a1969483-b275-4342-8037-dfe4ed5bdeaf, .abf77935-1aee-4519-8e5c-d1de67e93778 {
        fill: none;
        stroke-miterlimit: 10;
      }

      .a1969483-b275-4342-8037-dfe4ed5bdeaf, .abf77935-1aee-4519-8e5c-d1de67e93778 {
        stroke: #0c2633;
      }

      .a10ea82e-7905-4b08-ae04-423b093abe3e, .a1969483-b275-4342-8037-dfe4ed5bdeaf {
        stroke-width: 57px;
      }

      .b9e58563-965d-410b-8743-74ba25e8d1fb {
        fill: #0c2633;
      }

      .a10ea82e-7905-4b08-ae04-423b093abe3e {
        stroke: #223c4b;
      }

      .b2de46ba-0141-417f-b32c-e6151e5ada66 {
        fill: #223c4b;
      }

      .abf77935-1aee-4519-8e5c-d1de67e93778 {
        stroke-width: 50px;
      }

      .ac7a4406-b9af-41be-81b3-049f286acdc6 {
        fill: #e0e8eb;
      }

      .ed9b51c4-8a40-47f3-87f0-0ab3d610b888 {
        fill: #a93f55;
      }

      .f1a6a780-83cf-4ec1-8d26-43e2cf4613e0 {
        fill: #051923;
      }

      .e5248a83-a6e1-4a96-9907-8cffed61e315 {
        opacity: 0.2;
      }

      .ab4d8dda-4243-43dd-91fb-103c24d041af {
        fill: #863346;
      }
    </style>
  </defs>
  <polygon class="b527c931-0f71-46d5-aaa0-d86ec92f02da" points="131.01 231.56 131.01 606.06 447.8 793.31 764.59 606.06 764.59 231.56 447.8 44.31 131.01 231.56"/>
  <g>
    <path class="a1969483-b275-4342-8037-dfe4ed5bdeaf" d="M307.12,698.77l106,60.61a58.11,58.11,0,0,0,57.72,0L726.73,613a58.49,58.49,0,0,0,29.41-50.77V270.7a58.5,58.5,0,0,0-29.41-50.78L470.81,73.54a58.11,58.11,0,0,0-57.72,0L157.17,219.92a58.5,58.5,0,0,0-29.41,50.78V562.22A58.49,58.49,0,0,0,157.17,613l70.73,40.46"/>
    <path class="b9e58563-965d-410b-8743-74ba25e8d1fb" d="M212.35,683.88,179.6,664.94c-5.06-2.93-6.69-9.64-3.66-15l19.81-34.9a10.76,10.76,0,0,1,14.65-4.4l32.74,18.94c5.06,2.93,6.7,9.64,3.66,15L227,679.48C224,684.83,217.4,686.8,212.35,683.88Z"/>
    <rect class="b9e58563-965d-410b-8743-74ba25e8d1fb" x="293.49" y="257.11" width="57" height="443.24" rx="7.7"/>
    <path class="a10ea82e-7905-4b08-ae04-423b093abe3e" d="M305,704.19l107.66,62.06a58.63,58.63,0,0,0,58.65,0l260-149.89a60,60,0,0,0,29.88-52V265.86a60,60,0,0,0-29.88-52L471.28,64a58.63,58.63,0,0,0-58.65,0l-260,149.89a60,60,0,0,0-29.88,52v298.5a60,60,0,0,0,29.88,52l71.87,41.43"/>
    <path class="b2de46ba-0141-417f-b32c-e6151e5ada66" d="M211.07,683.6l-31.53-18.22a10.35,10.35,0,0,1-3.74-14l18.29-32.24A10.13,10.13,0,0,1,208,615.23l31.53,18.23a10.35,10.35,0,0,1,3.74,14L225,679.75A10.13,10.13,0,0,1,211.07,683.6Z"/>
    <path class="b2de46ba-0141-417f-b32c-e6151e5ada66" d="M289.49,693.93V267.52a8.61,8.61,0,0,1,8.8-8.41h39.45a8.61,8.61,0,0,1,8.8,8.41V719.61a8.61,8.61,0,0,1-8.8,8.41H298.29a8.61,8.61,0,0,1-8.8-8.41V693.93"/>
  </g>
  <g>
    <path class="b9e58563-965d-410b-8743-74ba25e8d1fb" d="M208.82,682.32l-27.75-16.05a9.13,9.13,0,0,1-3.27-12.41L194,625.33a8.94,8.94,0,0,1,12.25-3.43L234,638a9.12,9.12,0,0,1,3.27,12.4l-16.18,28.54A9,9,0,0,1,208.82,682.32Z"/>
    <g>
      <path class="abf77935-1aee-4519-8e5c-d1de67e93778" d="M303.87,707l109,62.75a59.44,59.44,0,0,0,59.37,0L735.49,618.22a60.62,60.62,0,0,0,30.24-52.57V263.86a60.62,60.62,0,0,0-30.24-52.57L472.24,59.74a59.44,59.44,0,0,0-59.37,0L149.63,211.29a60.63,60.63,0,0,0-30.25,52.57V565.65a60.63,60.63,0,0,0,30.25,52.57l72.76,41.89"/>
      <path class="b9e58563-965d-410b-8743-74ba25e8d1fb" d="M288.43,696.89V268.77a8.4,8.4,0,0,1,8.36-8.45h37.49a8.41,8.41,0,0,1,8.37,8.45v453.9a8.42,8.42,0,0,1-8.37,8.45H296.79a8.41,8.41,0,0,1-8.36-8.45V696.89"/>
    </g>
  </g>
  <g>
    <path class="ac7a4406-b9af-41be-81b3-049f286acdc6" d="M282.49,812.11a8.68,8.68,0,0,0,3.67,1,25.12,25.12,0,0,0,2.75-.17l1.5-.18.81-.13a22.23,22.23,0,0,0,7.45-2.61c7-4,11.82-15.87,11.82-15.87,3.14-8,7.65-19.54,3-31-6.72-16.53-27.87-20.26-43-23a85.82,85.82,0,0,0-45.13,3.61c-5.88,2.24-15.51,6-23.87,15.39a53.84,53.84,0,0,0-7,10c-9.73,18.61-1.08,56.43,24,77,12.61,10.35,25.25,12.79,50,17.25,17.66,3.17,49.72,7.14,78,3.75,75-9,111-104,111-104s9-24,10-27c.59-1.78,1.18-5.33,1.57-5.19t.09.12c.21.48.34,2.45.34,7.07,0,13,3,16,10,19s22,1,24,0,7-6,3-8-12-8-13-14-4-21-2-24,11,17,13,19,5,4,12,3,12-9,11-12-3-23-17-27c-3.16-.9-5.67-1.69-5.61-2.4.14-1.65,14.59,0,28.61-2.6,10.76-2,17-5.72,36-17,10-5.91,22.79-13.49,44-26l-107-3,2-7s-1,0,1-3a10.78,10.78,0,0,0,2-7c0-2,1-5,1-7s2-7,1-8,2-3,2-9,0-3,1-6,140-406,140-406,20-55,21-58,5-57,55-57,69,86.28,37,117.64c-4.78,4.68-9.53,9.44-13,12.17-9.47,7.34-32.59,21.49-42,23.19-2.75.5-4.12,1.49-4.56,2.71-1,2.79,4.45,7.68,9.56,9.29a32,32,0,0,0,5,1,47.58,47.58,0,0,0,6,.36c10.48-.11,24-5.36,24-5.36,21-9,33-13,55-36s24-58,25-63c7.85-39.25-14.17-94.39-62-119,0,0-55-28.32-123,10-9.74,5.49-25.62,19-31,25-2.29,2.52-8.13,12.18-10.21,17.17-2.54,6.08-4.39,10.64-4.79,11.83-3.94,11.62-76.51,217.31-177,502a15.34,15.34,0,0,0-7,1,2.89,2.89,0,0,0-1.09.68c-1.36,1.51-.07,4.48-.91,5.32-1,1-1,6-2,7s-2,7-2,9-2,1-2,3,0,10-1,10-3,4-2,8c.36,1.48.19,2.27-.23,2.69-.76.75-2.26.43-2.77.31-10.88-2.42-47.88-7.87-57-9-15.85-2-19.72.2-21,1-1.77,1.1-4.66,3.36-13,26,0,0-8.19,22.21-5.77,23.12h0c.54-.07,1.13-.11,1.75-.13h1c2.31-.81,70.48,1.48,80,11,1,1-1,9,0,11a6.38,6.38,0,0,0,2.2,2.08,12.6,12.6,0,0,1,1.07.88,1.14,1.14,0,0,1,.24.27c.06.15-.07.3-.08.32-.3.45-10.45,49.64-28.43,82.45-9.05,16.51-25,45.65-53,51-9.61,1.83-29.61,2.27-39-8.79-2.19-2.59-3-5.46-4-8.21-5.06-13.49-9.83-22.37-6.34-30,.36-.8,2.53-5.55,6.34-6,4-.47,7.31,4,8,5,4.15,5.92,3.34,14.43,3,18-.18,1.86-1,9,1,11a4.66,4.66,0,0,0,1.66,1l2.91-.1"/>
    <path class="ed9b51c4-8a40-47f3-87f0-0ab3d610b888" d="M271.49,817.11c-.8-1.33-18.29-31-11-42a15.85,15.85,0,0,1,4-4c5.33-3.48,12.91-3,18,0,8.16,4.74,9.31,14.71,10,21,.36,3.32,1.58,14.52-5,20a12.1,12.1,0,0,1-1.33,1s-4.67,2-4.67-4v-5s1-8,0-13-4-13-11-13-7.49,12.83-6.75,17.41S271.49,817.11,271.49,817.11Z"/>
    <path class="f1a6a780-83cf-4ec1-8d26-43e2cf4613e0" d="M783.49,181.11c2.7,0,4.7-11.31,5-13a68.65,68.65,0,0,0,1-15c-.74-14.5-1.53-30.16-11-47a64.81,64.81,0,0,0-12-16,63.29,63.29,0,0,0-23-14,69.27,69.27,0,0,1,21,16c8,9,11.53,17.86,14,24a68.41,68.41,0,0,1,4,13c.28,1.49.71,4.18,1,6l0,.27c.53,3.39.9,6.27,1,6.73.28,2.25.24,5.45,0,13-.42,12.76-.7,15.56-2,17a7.05,7.05,0,0,0-2,4,4.59,4.59,0,0,0,0,1C780.7,179,782.32,181.11,783.49,181.11Z"/>
    <path class="ed9b51c4-8a40-47f3-87f0-0ab3d610b888" d="M783.49,182.11c1.39-7.62,1.43-9.88,1-10s-.77.8-2,1c-.71.12-.9.1-1,0s-.18-.59,0-1c-.24.75-.57,1.78-1,3a51.51,51.51,0,0,1-2,5,35.85,35.85,0,0,1-3,5,41.21,41.21,0,0,1-6,7c-7,6.19-12.76,11.26-17,15a59.13,59.13,0,0,1-6.11,4.83c-1.29.89-3.18,2-6.89,4.17-3.39,2-5.12,3-7,4-2.35,1.25-4.1,2.09-6,3-5.37,2.57-8,3.86-9,4a40.36,40.36,0,0,0-6,2l-1,1-1,1a5.79,5.79,0,0,0,1,2c3,3.86,10.42,2.64,14,2,7.48-1.33,13.57-4.43,22-10a198.65,198.65,0,0,0,21-16,65.78,65.78,0,0,0,14-18,69.86,69.86,0,0,0,3-7,68.79,68.79,0,0,0,2.09-6.89c2-7.9,3.67-19.81,2.33-25.67-.42-1.83-2.06-3.08-2.73-4.84-.14-.35-1-3-1.6-2.64-.18.1-.09.62-.09.8,0,.36,0,.72,0,1.08,0,.71-.08,1.43-.15,2.14-.12,1.27-.29,2.53-.44,3.8s-.28,2.75-.38,4.12c-.27,4-.25,8.1-1,12.06-.34,1.78-.82,3.51-.82,3.51s-.08.27-.15.53c-.42,1.39-.77,2.36-1,3-.14.38-.31.85-.5,1.43s-.39,1.21-.5,1.57"/>
    <path class="b9e58563-965d-410b-8743-74ba25e8d1fb" d="M258.91,785.26c3.67,1.88,4.85,2.7,4.78,4.33s7.45,26.94,7.79,27.51h0l-1.72-2.49c-2-2.82-4.54-9.16-6.16-13.23-2.21-5.54-3.69-9.53-4.11-12.21L259,785.8h0"/>
  </g>
  <g>
    <path class="ed9b51c4-8a40-47f3-87f0-0ab3d610b888" d="M515.49,603.11c.75-5.43,1.06-6.15,1-6.75,0,0,0-.12,0-.25-1-6.26-31-10-31-10a226.52,226.52,0,0,0-24-2c-9.37-.24-25.08,0-32,0h-3c-3.68-.12-4.55-.63-6,0-.34.15-2.67,1.16-3,3-.16.86.18,1.42,0,3a10.82,10.82,0,0,1-.39,1.66c-.45,1.74-1,3.38-2.61,8.34-.95,3-2,6.18-3,9.82a106.42,106.42,0,0,0-3,11.18c-.84,4.66-1.27,7-1,10,.27,3.17,1.12,6,1,11.53,0,1.45,0,1.22,0,1.47,0,2,13,9,19,13s1,6-1,7c-1.68.84-23.81,10.85-30.86,14l-2.14,1-1,1-1,2v2c-.06,7.3-.65,8.3,0,9,1.75,1.9,8.85-2.53,18-7,6.81-3.33,3.95-1.39,19-8s14.07-6.91,26-12c10.23-4.37,15.32-6.6,22-9,5.25-1.89,3.92-1.19,12-4,12.49-4.34,16.31-6.24,18-10,.66-1.48.51-2.17,2-6,1.57-4.07,2.22-4.52,3-7,1-3.2.24-3.45,1-9,.62-4.56,1.13-4.36,2-10C515,608,514.84,607.77,515.49,603.11Z"/>
    <path class="ed9b51c4-8a40-47f3-87f0-0ab3d610b888" d="M481.49,686.11c3,4,10,8,10,24l-.23,2-18.77-6-10.11-21.54,1.11-1.46,18,3"/>
    <path class="ed9b51c4-8a40-47f3-87f0-0ab3d610b888" d="M471.24,703.55l-7.85-19.44-42.85-2.53a1.21,1.21,0,0,0-1.05-.47,1.18,1.18,0,0,0-1,1,8.19,8.19,0,0,0-1,0,9.33,9.33,0,0,0-5,2c-1.56,1.16-6.75,3.2-21,7a4.3,4.3,0,0,0,0,4,4.23,4.23,0,0,0,3,2c5,1,9.38,1.61,13,2,1.79.2,2.29.22,13,1,8.61.63,10.56.78,13,1,4.23.38,7.69.74,10,1Z"/>
    <path class="ed9b51c4-8a40-47f3-87f0-0ab3d610b888" d="M481.49,686.11l-24-19-1.92-1.91-12.3,5.17,19.23,13.11.22.63"/>
    <path class="ed9b51c4-8a40-47f3-87f0-0ab3d610b888" d="M490.49,714.11l.91-3.24s.31-.24.2,0,.06,0,.31.08a3.61,3.61,0,0,1,2,1.34c2.16,2.75,6.6,11.82,6.6,11.82a27.32,27.32,0,0,0,4,6l1,1h0a5.89,5.89,0,0,0,1.38.89,16.26,16.26,0,0,0,2.62,1.11,11.41,11.41,0,0,0,3.49.27,28,28,0,0,0,4.51-.27,12.92,12.92,0,0,0,6.6-4l.13-.13a16.76,16.76,0,0,0,3.06-5.21c1.49-4.21-2.06-17.24-8.79-24.69a18,18,0,0,0-5-4l-1.45-.64c-2.26-1-4.09-1.78-5.55-2.36-1.81-.71-3.23-1.15-6-2-4.28-1.31-4.26-1.14-7-2-3.89-1.22-6.78-2.46-12-3.74-1.82-.45-2.82-.61-3-.26-.33.62,2.14,2.29,4,4,7.31,6.74,9.2,18,8.78,18.19h0C490.49,706.11,490.49,714.11,490.49,714.11Z"/>
    <polygon class="e5248a83-a6e1-4a96-9907-8cffed61e315" points="429.9 659.14 444.02 670.83 441.5 672.15 429.86 662.07 429.9 659.14"/>
    <path class="e5248a83-a6e1-4a96-9907-8cffed61e315" d="M443.18,654.49a56.9,56.9,0,0,0,5.61,6.49,19.51,19.51,0,0,0,7.16,4.56l2.07-.95-2.73-2.19a64.2,64.2,0,0,1-10-8.21Z"/>
    <path class="e5248a83-a6e1-4a96-9907-8cffed61e315" d="M418.65,683.76a22.92,22.92,0,0,1-4,2.35c-5.53,2.69-11.3,4.85-16.89,7.43a17,17,0,0,1-5,1.74,1.07,1.07,0,0,1-1.47-.84,5.66,5.66,0,0,1-.1-2.28,1.44,1.44,0,0,1,.27-.73,1.62,1.62,0,0,1,.67-.45,21.16,21.16,0,0,1,3-1,105.36,105.36,0,0,0,17.71-6.53c2.28-1.08,4.64-2.28,7.18-2.25.23,0,.57.12.54.4s-.36.6-.51.79A7.51,7.51,0,0,1,418.65,683.76Z"/>
    <path class="ed9b51c4-8a40-47f3-87f0-0ab3d610b888" d="M462.72,684.11c8.77,19,8.52,19.21,8.52,19.21l.25,1.79,19.75,5.6"/>
    <path class="ed9b51c4-8a40-47f3-87f0-0ab3d610b888" d="M471.24,703.55c-.24,1.78-.5,3.72-.75,5.56-.8,5.84-.91,6.75-1,8s0,.62,0,8c0,3.53,0,9.16,0,11,0,.17,0,.6,0,1.18,0,1.18-.08,1.7,0,3.82.12,4,.19,6.07,1,8a13.41,13.41,0,0,0,3.46,4.78,16.45,16.45,0,0,0,6.35,3.56,25,25,0,0,0,6.2,1.12c3.75.35,6.88.09,13-.46,3.29-.3,4.06-.45,5-1,2.34-1.36,4.65-4.48,4-7-.83-3.17-5.55-2.28-10-7a19.7,19.7,0,0,1-4-7c-.86-2.19-.68-2.55-2-10-1.24-6.93-1.88-9.35-1-13a17.83,17.83,0,0,1,1-3"/>
    <path class="e5248a83-a6e1-4a96-9907-8cffed61e315" d="M462.63,683.42a26.25,26.25,0,0,1,6,7.35,16.6,16.6,0,0,1,1.06,2.21,18.83,18.83,0,0,1,.66,2.18,26.8,26.8,0,0,1,.8,8.36l-2.11-.08a26.57,26.57,0,0,0-.17-3.45l-.17-1.59c-.08-.74-.16-1.48-.3-2.21-.61-3.16-2.3-6-4-8.73-.76-1.24-1.51-2.47-2.39-3.63Z"/>
    <path class="e5248a83-a6e1-4a96-9907-8cffed61e315" d="M483.53,689.43c.63.93,1.27,1.86,1.87,2.81.4.65.79,1.3,1.17,2s.74,1.34,1.09,2,.67,1.38,1,2.08.61,1.41.89,2.12.54,1.44.78,2.17.47,1.46.67,2.2.39,1.49.56,2.23.31,1.51.43,2.26c0,.29.1.58.14.88l.06.43a.64.64,0,0,1,0,.41,3,3,0,0,0-.19.41c-.08.22-.11.45-.21.66,0,0-.05.08-.07.13s0,.26-.06.38-.08.09-.06.15l-.41-.83-.27-.56-.09-.18a1,1,0,0,1-.06-.35c-.05-.53-.06-1.07-.16-1.6a59.85,59.85,0,0,0-2.43-8.17,31,31,0,0,0-4.23-8.68l-2.22-3.44-1.11-1.73c-.31-.47-.71-.86-1-1.35-.15-.26-.23-.5-.4-.75a5.4,5.4,0,0,1-.6-1.26l1,.15a.1.1,0,0,1,.07,0,.14.14,0,0,1,0,.07,3.76,3.76,0,0,0,.35.83,3.39,3.39,0,0,0,.7,1c.14.12.3.19.43.32a6.75,6.75,0,0,1,.47.59C482.33,687.68,482.93,688.56,483.53,689.43Z"/>
    <path class="ac7a4406-b9af-41be-81b3-049f286acdc6" d="M506.49,599.11c1,1,2,6,1,6-2.71,0-7.92-3.18-19-6-3.28-.83-8.19-1.22-18-2-8.54-.68-13-1-19-1a143.37,143.37,0,0,0-23,2,2.8,2.8,0,0,1-2-1c-.78-1.08-.18-2.57,0-3,1.18-2.94,6.45-3.69,9-4,8.69-1.06,15.27-.53,25,0,5,.27,10,.69,15,1,7.12.45,8.77.51,12,1,7.89,1.2,11.89,2.95,14,4A38.92,38.92,0,0,1,506.49,599.11Z"/>
    <path class="ac7a4406-b9af-41be-81b3-049f286acdc6" d="M421.49,611.11a31.74,31.74,0,0,1,7-4,33.56,33.56,0,0,1,7-2,70.67,70.67,0,0,1,15-1c7.23.13,13.25.59,18,1a171.21,171.21,0,0,1,21,3,38.53,38.53,0,0,1,9,3c3.42,1.64,8.46,4.71,8,6s-5.21.61-8,0c-3.73-.82-4.51-1.89-9-3a56.94,56.94,0,0,0-6-1c-1.38-.19-5.43-.72-11-1-1.32-.07-2.27-.09-2.82-.11-12.89-.51-13.18-.8-18.18-.89,0,0-9-.17-20.4.75-1.53.12-3.08.08-4.6.25-2.65.3-4.52.78-5,0A1.17,1.17,0,0,1,421.49,611.11Z"/>
    <path class="ac7a4406-b9af-41be-81b3-049f286acdc6" d="M418.49,622.11a75,75,0,0,1,12-3,89.49,89.49,0,0,1,14-1,184.74,184.74,0,0,1,22,1c1.86.19,4.49.47,8,1,6.05.92,10.73,2,15,3,2.2.51,4.91,1.18,8,2,1.57.74,3.3,1.7,3.15,2.32-.19.82-3.38.74-5.15.68-9.41-.33-17.25-1.46-22-2-6.49-.74-11.62-.88-16-1-2.71-.07-7.17-.19-13,0-7,.23-14-.69-21,0-1.13.11-4.17.45-5-1A2.44,2.44,0,0,1,418.49,622.11Z"/>
    <path class="ac7a4406-b9af-41be-81b3-049f286acdc6" d="M423.49,637.11c3,0,51,3,51,4s-24,13-27,13-3.65,1-5.32,0-21.68-16-21.68-16Z"/>
    <path class="e5248a83-a6e1-4a96-9907-8cffed61e315" d="M500.19,627.9l0,0,0,0-.08,0-.09,0-.11.05-.13.07-.14.07-.16.08-.17.09-.19.1-.21.11-.22.11-.23.12-.24.13-.26.13-.27.14-.28.14-.3.16-.3.15-.32.17-.32.16-.34.18-.34.17-.35.19-.36.18-.37.19-.38.2-.38.2-.39.2-.4.2-.4.21-.41.21-.41.22-.42.21-.42.22-.42.22-.43.22-.43.22-.43.22-.44.23-.43.22-.44.23-.43.22-.44.23-.43.22-.44.23-.43.22-.43.22-.43.22-.43.22-.42.22-.42.22-.41.21-.41.21-.41.21-.4.21-.39.2-.39.2-.38.2-.38.19-.36.19-.36.19-.35.18-.34.17-.33.18-.32.16-.31.16-.3.16-.29.15-.28.14-.27.14-.25.13-.24.12-.22.12-.22.11-.19.1-.19.1-.17.08-.15.08-.14.07-.12.06-.1.06-.08,0-.07,0-.05,0,0,0h-.05l-.11,0-.39-.12-.48-.14-.4-.12-.17,0h0l.13-.18.27-.36.29-.39.21-.28s0,0,.06-.06l.06,0,.1,0,.13-.06.17-.08.2-.09.23-.11.26-.13.29-.13.32-.15.34-.17.37-.17.39-.18.42-.2.43-.21.45-.21.48-.22.49-.24.5-.23.52-.25.53-.25L481,636l.55-.26.56-.27.58-.27.57-.27.59-.28.58-.28.59-.28.59-.27.59-.28.59-.28.59-.28.58-.28.58-.27.57-.27.56-.27.56-.26.54-.25.53-.26.52-.24.5-.24.49-.23.47-.22.45-.22.43-.2.42-.2.38-.18.37-.17.34-.16.32-.15.28-.14.26-.12.23-.11.19-.09.17-.08.13-.06.09-.05.08,0,2.72-.39S500.2,627.88,500.19,627.9Z"/>
    <path class="e5248a83-a6e1-4a96-9907-8cffed61e315" d="M418.23,623.39a8.58,8.58,0,0,0-.85,4c0,.59.07,1.17.12,1.76l.25,2.64c.05.49.1,1,.17,1.47a12.59,12.59,0,0,0,.94,3.19,2.6,2.6,0,0,0,1.65,1.65l1.74-.58a10,10,0,0,1-2.54-3.89,15.93,15.93,0,0,1-.56-2.46c-.14-.91-.27-1.82-.4-2.72a11.43,11.43,0,0,1-.06-4.08l-.37-1Z"/>
    <path class="e5248a83-a6e1-4a96-9907-8cffed61e315" d="M418.66,622a.77.77,0,0,0-.2.1l0,0a6.49,6.49,0,0,1-.21,1.33l-.24.43c0-.11-.08-.22-.12-.33a2.68,2.68,0,0,1-.07-.27,1.26,1.26,0,0,1,.07-.51l.12-.44a.74.74,0,0,1,.1-.22.54.54,0,0,1,.31-.2.93.93,0,0,1,.37,0,.15.15,0,0,1,.09,0C419,622,418.71,622,418.66,622Z"/>
    <path class="e5248a83-a6e1-4a96-9907-8cffed61e315" d="M507.32,599.11a.14.14,0,0,1,.11,0s.06.06.09.1a7,7,0,0,1,.83,2.69,17.17,17.17,0,0,1,.12,3.44l-1.05-.17c.22,0,.38-.26.45-.48a1.67,1.67,0,0,0,.06-.67,15.42,15.42,0,0,0-.4-2.32,7.86,7.86,0,0,0-.67-2c-.06-.11-.32-.41-.25-.53S507.19,599.11,507.32,599.11Z"/>
    <path class="ab4d8dda-4243-43dd-91fb-103c24d041af" d="M499.23,625.47a2.26,2.26,0,0,1,.72.24l.32.23a1.73,1.73,0,0,1,.74.95,1.07,1.07,0,0,1-.31.91,1.88,1.88,0,0,1-.86.48c-.32.09-.65.14-1,.2.15-.09.18-.3.32-.42a.66.66,0,0,1,.34-.12l.46-.07a.91.91,0,0,0,.4-.14.7.7,0,0,0,.15-.19.49.49,0,0,0,.08-.33.59.59,0,0,0-.19-.32,5.79,5.79,0,0,0-.55-.43l-.34-.24-.32-.23-.54-.28-.54-.27a1.91,1.91,0,0,1-.52-.3c.07-.1.65.11.77.13Z"/>
    <path class="e5248a83-a6e1-4a96-9907-8cffed61e315" d="M427.46,592.84a2.09,2.09,0,0,0-1,.91,3.54,3.54,0,0,0-.25.64,4.81,4.81,0,0,0-.18.65,3,3,0,0,0,.65,2.35,2.22,2.22,0,0,0,.39.36,2.51,2.51,0,0,0,.8.31l.55.16-1.4.08a1.28,1.28,0,0,1-.95-.49,2.68,2.68,0,0,1-.48-1,5.32,5.32,0,0,1-.06-3,2.35,2.35,0,0,1,1.62-1.72,9.32,9.32,0,0,1,1.19-.26Z"/>
    <path class="e5248a83-a6e1-4a96-9907-8cffed61e315" d="M423.51,609.51c-.38.26-.76.54-1.13.83a7.87,7.87,0,0,0-.75.66,1.2,1.2,0,0,0-.17.21.8.8,0,0,0-.07.57,1.77,1.77,0,0,0,.25.54.67.67,0,0,0,.21.23l.18.08c.12,0,.28.14.46.48l-.83-.17a1.3,1.3,0,0,1-.4-.28,1.1,1.1,0,0,1-.19-.46,6.21,6.21,0,0,1-.16-.84,1.26,1.26,0,0,1,0-.39,1.34,1.34,0,0,1,.12-.24,1.79,1.79,0,0,1,.31-.36,2.24,2.24,0,0,1,.43-.31c.32-.2.65-.37.95-.6a1,1,0,0,1,.54-.28l.38.06c.05,0,.18,0,.15.08s-.14.07-.17.09Z"/>
    <path class="e5248a83-a6e1-4a96-9907-8cffed61e315" d="M505.52,615.48s0,0,0-.06a.57.57,0,0,1,.33.09,1.18,1.18,0,0,1,.26.24,3.17,3.17,0,0,1,.48.71,1.15,1.15,0,0,1,.06.17.81.81,0,0,1,0,.22,1.34,1.34,0,0,1-.05.35.84.84,0,0,1-.44.45,2.13,2.13,0,0,1-.61.17.61.61,0,0,1-.3,0s0-.05,0-.08a.26.26,0,0,1,.19-.12l.33-.1a1.43,1.43,0,0,0,.38-.17.56.56,0,0,0,.25-.32.87.87,0,0,0-.08-.5,1.6,1.6,0,0,0-.1-.23,1.34,1.34,0,0,1-.11-.14c-.07-.09-.12-.2-.18-.29a2.19,2.19,0,0,0-.34-.34l-.2-.15s0,0,.06,0A.2.2,0,0,0,505.52,615.48Z"/>
  </g>
  <g>
    <polygon class="b2de46ba-0141-417f-b32c-e6151e5ada66" points="579.42 150.53 655.32 194.14 652.96 201.6 573.09 155.54 579.42 150.53"/>
    <polygon class="b9e58563-965d-410b-8743-74ba25e8d1fb" points="576.55 157.55 652.81 201.46 650.38 209.09 571.95 164.22 576.55 157.55"/>
    <rect class="b9e58563-965d-410b-8743-74ba25e8d1fb" x="601.88" y="95.85" width="50.23" height="106.11" rx="2.34" transform="translate(185.52 618.36) rotate(-60.12)"/>
    <path class="ed9b51c4-8a40-47f3-87f0-0ab3d610b888" d="M220.94,679.52a1.13,1.13,0,0,0,.06.6,2.73,2.73,0,0,0,.27.54,1,1,0,0,0,.11.15.77.77,0,0,0,.19.17,2.37,2.37,0,0,0,1.22.46.55.55,0,0,0,.18,0,.49.49,0,0,0,.18-.08,3.49,3.49,0,0,0,1.38-1.47l17.72-31.25a1.56,1.56,0,0,0,.16-1.21,1.59,1.59,0,0,0-.75-1,3.12,3.12,0,0,0-.42-.18,5,5,0,0,0-1-.2,1.47,1.47,0,0,0-.72.09,1.68,1.68,0,0,0-.69,1c-.33,1-.68,1.92-1,2.88Z"/>
    <path class="ed9b51c4-8a40-47f3-87f0-0ab3d610b888" d="M301.12,258.47l37.13-.19a1.39,1.39,0,0,1,.74.22,1.19,1.19,0,0,1,.46.43.69.69,0,0,1-.36.81,2.46,2.46,0,0,1-1,.28,8.24,8.24,0,0,1-1,.07l-36.39,0a3.45,3.45,0,0,1-1.39-.16,1.54,1.54,0,0,1-.59-.32.66.66,0,0,1-.22-.55.82.82,0,0,1,.58-.53,3.1,3.1,0,0,1,.87-.09Z"/>
  </g>
</svg>
